<svg width="32" height="32" viewBox="0 0 32 32" fill="none" xmlns="http://www.w3.org/2000/svg">
<path d="M18.9157 13.7263C17.5461 13.7263 16.9345 14.4791 16.5923 15.0076V13.9094H14.0131C14.0466 14.6363 14.0131 21.6696 14.0131 21.6696H16.5923V17.3341C16.5923 17.1028 16.6071 16.8701 16.6767 16.7045C16.8636 16.2405 17.2877 15.7603 18.0005 15.7603C18.9337 15.7603 19.3069 16.4718 19.3069 17.5159V21.6677H21.8861H21.8867V17.2175C21.8855 14.8355 20.6126 13.7263 18.9157 13.7263ZM16.5904 15.0346H16.5742C16.5794 15.0256 16.5871 15.0172 16.5904 15.0082V15.0346Z" fill="#555555"/>
<path d="M12.5836 13.9093H10.0044V21.6696H12.5836V13.9093Z" fill="#555555"/>
<path d="M16 0C7.17764 0 0 7.17764 0 16C0 24.8217 7.17764 32 16 32C24.8217 32 32 24.8217 32 16C32 7.17764 24.823 0 16 0ZM24.4847 23.2369C24.4847 23.9175 23.9201 24.4679 23.2221 24.4679H8.66898C7.97293 24.4679 7.40772 23.9175 7.40772 23.2369V8.5143C7.40772 7.83437 7.97293 7.28333 8.66898 7.28333H23.2221C23.9194 7.28333 24.4847 7.83501 24.4847 8.5143V23.2369Z" fill="#555555"/>
<path d="M11.3114 10.1681C10.4297 10.1681 9.85226 10.7468 9.85226 11.5086C9.85226 12.253 10.4123 12.8492 11.2772 12.8492H11.294C12.1937 12.8492 12.7537 12.253 12.7537 11.5086C12.7363 10.7475 12.1943 10.1681 11.3114 10.1681Z" fill="#555555"/>
</svg>
