<svg width="32" height="32" viewBox="0 0 32 32" fill="none" xmlns="http://www.w3.org/2000/svg">
<path d="M13.8564 18.6514C13.7527 18.5825 13.6463 18.5077 13.5348 18.4323C13.2107 18.333 12.8665 18.2815 12.514 18.277H12.4714C10.8512 18.277 9.43076 19.2572 9.43076 20.3761C9.43076 21.5941 10.6482 22.5461 12.2014 22.5461C14.2502 22.5461 15.2885 21.8384 15.2885 20.4463C15.2885 20.3148 15.273 20.1782 15.2401 20.0409C15.1016 19.5009 14.606 19.1638 13.8564 18.6514Z" fill="#555555"/>
<path d="M12.7086 14.4056C12.7099 14.4056 12.7099 14.4056 12.7099 14.4056C13.0972 14.4056 13.424 14.2528 13.6773 13.9628C14.0743 13.5104 14.2502 12.7679 14.1458 11.9797C13.9621 10.5709 12.9548 9.39791 11.9036 9.36762L11.8618 9.36633C11.4899 9.36633 11.158 9.51972 10.906 9.80845C10.5148 10.2551 10.3491 10.9627 10.4516 11.7496C10.6359 13.1572 11.6645 14.3733 12.6938 14.4056H12.7086Z" fill="#555555"/>
<path d="M16 0C7.17764 0 0 7.17764 0 16C0 24.8217 7.17764 32 16 32C24.8217 32 32 24.8217 32 16C32 7.17764 24.823 0 16 0ZM14.1555 23.7912C13.551 23.9658 12.8968 24.0541 12.2104 24.0541C11.4461 24.0541 10.7114 23.9665 10.0263 23.7931C8.70056 23.4586 7.72094 22.8245 7.26335 22.0072C7.06614 21.6541 6.96624 21.2777 6.96624 20.8878C6.96624 20.4863 7.06227 20.0789 7.25175 19.6755C7.97809 18.1274 9.89285 17.086 12.0139 17.086C12.0351 17.086 12.0551 17.086 12.0744 17.086C11.9024 16.7824 11.8192 16.4679 11.8192 16.1373C11.8192 15.9729 11.8411 15.8054 11.885 15.6346C9.66019 15.5843 7.99549 13.955 7.99549 11.807C7.99549 10.2905 9.20777 8.8127 10.9414 8.2159C11.4602 8.03674 11.9894 7.94522 12.5095 7.94522H17.2671C17.4288 7.94522 17.5725 8.05027 17.6228 8.2043C17.6731 8.35769 17.6177 8.52654 17.4868 8.62128L16.4228 9.39144C16.359 9.43656 16.2823 9.46105 16.203 9.46105H15.8221C16.3139 10.0508 16.6019 10.8918 16.6019 11.836C16.6019 12.8781 16.0748 13.8635 15.1151 14.6144C14.374 15.1918 14.345 15.351 14.345 15.6803C14.354 15.8614 14.8702 16.4524 15.4399 16.8552C16.7669 17.7936 17.2606 18.7146 17.2606 20.251C17.26 21.8564 16.0412 23.2434 14.1555 23.7912ZM24.8997 15.6307C24.8997 15.8369 24.7315 16.0045 24.5259 16.0045H21.8223V18.7094C21.8223 18.9157 21.6541 19.0832 21.4498 19.0832H20.6796C20.4721 19.0832 20.3045 18.9157 20.3045 18.7094V16.0045H17.6028C17.3966 16.0045 17.229 15.8382 17.229 15.6307V14.8618C17.229 14.6556 17.3966 14.4867 17.6028 14.4867H20.3045V11.7844C20.3045 11.5775 20.4721 11.4106 20.6796 11.4106H21.4498C21.6541 11.4106 21.8223 11.5775 21.8223 11.7844V14.4867H24.5253C24.7308 14.4867 24.8991 14.6543 24.8991 14.8605V15.6307H24.8997Z" fill="#555555"/>
</svg>
